<mxfile host="app.diagrams.net" modified="2023-07-29T14:49:33.772Z" agent="Mozilla/5.0 (Windows NT 10.0; Win64; x64) AppleWebKit/537.36 (KHTML, like Gecko) Chrome/115.0.0.0 Safari/537.36" etag="aNNe1WJiQxGWiot1-uKn" version="21.6.5" type="github">
  <diagram name="PÃ¡gina-1" id="5-PutnXY7rbkwEj0jI-h">
    <mxGraphModel dx="1050" dy="534" grid="1" gridSize="10" guides="1" tooltips="1" connect="1" arrows="1" fold="1" page="1" pageScale="1" pageWidth="827" pageHeight="1169" math="0" shadow="0">
      <root>
        <mxCell id="0" />
        <mxCell id="1" parent="0" />
        <mxCell id="peViB9lExnbHkPldmVvl-5" style="edgeStyle=orthogonalEdgeStyle;rounded=0;orthogonalLoop=1;jettySize=auto;html=1;exitX=0.5;exitY=1;exitDx=0;exitDy=0;entryX=0.5;entryY=0;entryDx=0;entryDy=0;" edge="1" parent="1" source="peViB9lExnbHkPldmVvl-1" target="peViB9lExnbHkPldmVvl-2">
          <mxGeometry relative="1" as="geometry" />
        </mxCell>
        <mxCell id="peViB9lExnbHkPldmVvl-1" value="Ask for Actioners info" style="rounded=0;whiteSpace=wrap;html=1;" vertex="1" parent="1">
          <mxGeometry x="310" y="70" width="120" height="60" as="geometry" />
        </mxCell>
        <mxCell id="peViB9lExnbHkPldmVvl-6" style="edgeStyle=orthogonalEdgeStyle;rounded=0;orthogonalLoop=1;jettySize=auto;html=1;exitX=0.5;exitY=1;exitDx=0;exitDy=0;entryX=0.5;entryY=0;entryDx=0;entryDy=0;" edge="1" parent="1" source="peViB9lExnbHkPldmVvl-2" target="peViB9lExnbHkPldmVvl-3">
          <mxGeometry relative="1" as="geometry" />
        </mxCell>
        <mxCell id="peViB9lExnbHkPldmVvl-7" style="edgeStyle=orthogonalEdgeStyle;rounded=0;orthogonalLoop=1;jettySize=auto;html=1;entryX=0;entryY=0.5;entryDx=0;entryDy=0;" edge="1" parent="1" source="peViB9lExnbHkPldmVvl-2" target="peViB9lExnbHkPldmVvl-1">
          <mxGeometry relative="1" as="geometry">
            <Array as="points">
              <mxPoint x="200" y="200" />
              <mxPoint x="200" y="100" />
            </Array>
          </mxGeometry>
        </mxCell>
        <mxCell id="peViB9lExnbHkPldmVvl-2" value="Type in Actioners info" style="rounded=0;whiteSpace=wrap;html=1;" vertex="1" parent="1">
          <mxGeometry x="310" y="170" width="120" height="60" as="geometry" />
        </mxCell>
        <mxCell id="peViB9lExnbHkPldmVvl-10" style="edgeStyle=orthogonalEdgeStyle;rounded=0;orthogonalLoop=1;jettySize=auto;html=1;entryX=0.5;entryY=0;entryDx=0;entryDy=0;" edge="1" parent="1" source="peViB9lExnbHkPldmVvl-3" target="peViB9lExnbHkPldmVvl-9">
          <mxGeometry relative="1" as="geometry" />
        </mxCell>
        <mxCell id="peViB9lExnbHkPldmVvl-3" value="Loop through dictionary biders" style="rounded=0;whiteSpace=wrap;html=1;" vertex="1" parent="1">
          <mxGeometry x="310" y="270" width="120" height="50" as="geometry" />
        </mxCell>
        <mxCell id="peViB9lExnbHkPldmVvl-8" value="ask for more" style="text;html=1;strokeColor=none;fillColor=none;align=center;verticalAlign=middle;whiteSpace=wrap;rounded=0;" vertex="1" parent="1">
          <mxGeometry x="130" y="130" width="60" height="30" as="geometry" />
        </mxCell>
        <mxCell id="peViB9lExnbHkPldmVvl-9" value="Select bigget bidder" style="rounded=0;whiteSpace=wrap;html=1;" vertex="1" parent="1">
          <mxGeometry x="310" y="370" width="120" height="60" as="geometry" />
        </mxCell>
      </root>
    </mxGraphModel>
  </diagram>
</mxfile>
